<svg width="300" height="300" viewBox="0 0 300 300" fill="none" xmlns="http://www.w3.org/2000/svg">
<rect width="300" height="300" fill="white"/>
<path d="M150.704 72.768L167.728 101.696C168.24 102.549 168.496 103.701 168.496 105.152C168.496 107.285 167.984 109.248 166.96 111.04L128.432 177.856C127.408 179.563 125.957 181.013 124.08 182.208C122.203 183.403 120.411 184 118.704 184H32.688C30.2987 184 29.104 182.976 29.104 180.928C29.104 179.989 29.4453 178.965 30.128 177.856L62 122.56C63.024 120.853 64.4747 119.403 66.352 118.208C68.2293 117.013 70.0213 116.416 71.728 116.416H114.736C116.443 116.416 118.235 115.819 120.112 114.624C121.989 113.429 123.44 111.979 124.464 110.272L144.816 74.944C146.096 72.7253 147.461 71.616 148.912 71.616C149.68 71.616 150.277 72 150.704 72.768ZM89.008 171.712L113.712 128.704C114.395 127.595 114.736 126.571 114.736 125.632C114.736 123.584 113.541 122.56 111.152 122.56C109.445 122.56 107.653 123.157 105.776 124.352C103.899 125.547 102.448 126.997 101.424 128.704L76.72 171.712C76.0373 172.821 75.696 173.845 75.696 174.784C75.696 176.832 76.8907 177.856 79.28 177.856C80.9867 177.856 82.7787 177.259 84.656 176.064C86.5333 174.869 87.984 173.419 89.008 171.712ZM181.896 116.416H267.912C270.301 116.416 271.496 117.44 271.496 119.488C271.496 120.427 271.197 121.451 270.6 122.56L238.6 177.856C237.661 179.563 236.211 181.013 234.248 182.208C232.371 183.403 230.579 184 228.872 184H185.864C184.243 184 182.451 184.597 180.488 185.792C178.611 186.987 177.203 188.437 176.264 190.144L155.912 225.472C154.632 227.691 153.267 228.8 151.816 228.8C151.048 228.8 150.408 228.373 149.896 227.52L133 198.72C132.403 197.781 132.104 196.587 132.104 195.136C132.104 193.003 132.616 191.083 133.64 189.376L172.296 122.56C173.235 120.853 174.643 119.403 176.52 118.208C178.397 117.013 180.189 116.416 181.896 116.416ZM199.176 171.712L224.008 128.704C224.605 127.595 224.904 126.571 224.904 125.632C224.904 123.584 223.752 122.56 221.448 122.56C219.741 122.56 217.907 123.157 215.944 124.352C214.067 125.547 212.659 126.997 211.72 128.704L186.888 171.712C186.205 172.821 185.864 173.845 185.864 174.784C185.864 176.832 187.059 177.856 189.448 177.856C191.155 177.856 192.947 177.259 194.824 176.064C196.701 174.869 198.152 173.419 199.176 171.712Z" fill="black"/>
</svg>
